<svg xmlns="http://www.w3.org/2000/svg" aria-hidden="true" style="position:absolute;width:0;height:0;overflow:hidden">
  <defs>
<symbol id="youtube" viewBox="0 0 32 32">
<path stroke-linejoin="round" stroke-linecap="round" stroke-miterlimit="4" stroke-width="1.4545" d="M26.286 4.572h-20.571c-2.525 0-4.571 2.047-4.571 4.571v13.714c0 2.525 2.047 4.572 4.571 4.572h20.571c2.525 0 4.571-2.047 4.571-4.572v-13.714c0-2.525-2.047-4.571-4.571-4.571z"></path>
<path stroke-linejoin="round" stroke-linecap="round" stroke-miterlimit="4" stroke-width="1.4545" d="M12.137 21.303v-9.6c-0.005-0.162 0.035-0.322 0.114-0.464s0.196-0.258 0.337-0.338c0.141-0.080 0.301-0.12 0.463-0.116s0.32 0.053 0.457 0.14l8.229 4.8c0.137 0.081 0.252 0.196 0.331 0.334s0.121 0.295 0.121 0.454-0.042 0.316-0.121 0.454c-0.079 0.138-0.193 0.254-0.331 0.334l-8.229 4.8c-0.14 0.081-0.298 0.123-0.459 0.123s-0.319-0.043-0.459-0.125c-0.139-0.081-0.255-0.198-0.334-0.338s-0.121-0.299-0.119-0.46z"></path>
</symbol>
    <symbol id="phone" viewBox="0 0 32 32">
      <path d="m27.428 21.122-6.692-.774-3.2 3.198a19.097 19.097 0 0 1-8.368-8.363l3.213-3.211-.775-6.663H4.609c-.736 12.919 9.892 23.541 22.819 22.805v-6.993z"/>
    </symbol>
    <symbol id="facebook" viewBox="0 0 32 32">
      <path d="M16 3c-2.571 0-5.085.762-7.222 2.191S4.974 8.65 3.99 11.025a13.004 13.004 0 0 0 2.818 14.167 13.002 13.002 0 0 0 20.001-1.97A13.003 13.003 0 0 0 29 16 13.018 13.018 0 0 0 16 3zm1 23.954V19h3a.997.997 0 0 0 1-1 .997.997 0 0 0-1-1h-3v-3a2 2 0 0 1 2-2h2a.997.997 0 0 0 1-1 .997.997 0 0 0-1-1h-2a4.003 4.003 0 0 0-4 4v3h-3a.997.997 0 0 0-1 1 .997.997 0 0 0 1 1h3v7.954a11.003 11.003 0 0 1-9.989-11.455 10.996 10.996 0 0 1 18.587-7.453 11.001 11.001 0 0 1-6.599 18.908z"/>
    </symbol>
    <symbol id="instagram" viewBox="0 0 32 32">
      <path d="M16 10a5.998 5.998 0 0 0-4.242 10.243 5.996 5.996 0 0 0 6.539 1.301 6.004 6.004 0 0 0 3.704-5.543 6.007 6.007 0 0 0-6-6zm0 10a4.002 4.002 0 0 1-3.923-4.78c.154-.776.535-1.489 1.095-2.048s1.272-.94 2.048-1.095A4 4 0 1 1 16 20zm6-17H10a7.005 7.005 0 0 0-7 7v12a7.005 7.005 0 0 0 7 7h12a7.005 7.005 0 0 0 7-7V10a7.005 7.005 0 0 0-7-7zm5 19a5.003 5.003 0 0 1-5 5H10a5.001 5.001 0 0 1-5-5V10a4.997 4.997 0 0 1 5-5h12a5 5 0 0 1 5 5v12zM24 9.5a1.495 1.495 0 0 1-.926 1.385 1.496 1.496 0 0 1-1.635-.326c-.21-.21-.353-.477-.41-.768s-.028-.593.085-.867a1.5 1.5 0 0 1 2.885.574z"/>
    </symbol>
    <symbol id="vector-down" viewBox="0 0 32 32">
      <path d="m0 16 2.8-2.85L14 24.35V0h4v24.35l11.2-11.2L32 16 16 32 0 16z"/>
    </symbol>
    <symbol id="vector-up" viewBox="0 0 32 32">
      <path d="m29.6 15.403-2.38 2.744L17.7 7.365v23.442h-3.4V7.365L4.78 18.147 2.4 15.403 16 0l13.6 15.403z"/>
    </symbol>
    <symbol id="lin" viewBox="0 0 32 32">
      <path d="M12.795 21.378h-2.607v-8.472h2.607v8.472zm-1.304-9.56c-.94 0-1.411-.435-1.411-1.304a1.213 1.213 0 0 1 .407-.924c.272-.254.632-.39 1.004-.38.94 0 1.411.437 1.411 1.305s-.469 1.302-1.411 1.302zm10.974 9.56h-2.661v-4.726c0-1.23-.437-1.846-1.305-1.846-.688 0-1.139.344-1.359 1.032-.07.109-.108.328-.108.652v4.889h-2.661v-5.757c0-1.304-.02-2.208-.054-2.715h2.282l.163 1.139c.598-.906 1.467-1.357 2.661-1.357.908 0 1.639.316 2.2.95.564.634.844 1.548.844 2.744v4.996h-.002zM16 30.667C7.912 30.667 1.333 24.088 1.333 16S7.912 1.333 16 1.333c8.088 0 14.667 6.579 14.667 14.667S24.088 30.667 16 30.667zm0-26.074C9.711 4.593 4.593 9.712 4.593 16S9.712 27.407 16 27.407c6.289 0 11.407-5.119 11.407-11.407S22.288 4.593 16 4.593z"/>
    </symbol>
    <symbol id="menu-icon" viewBox="0 0 38 32">
<path d="M0 0h38.4v1.28h-38.4v-1.28z"></path>
<path d="M0 7.68h38.4v1.28h-38.4v-1.28z"></path>
<path d="M0 15.36h38.4v1.28h-38.4v-1.28z"></path>
<path d="M0 23.040h38.4v1.28h-38.4v-1.28z"></path>
<path d="M0 30.72h38.4v1.28h-38.4v-1.28z"></path>
</symbol>
<symbol id="play" viewBox="0 0 32 32">
<path fill="#bdbdbd" style="fill: var(--color1, #bdbdbd)" opacity="0.87" d="M12.667 22l9.333-6-9.333-6v12zM16 29.333c-1.844 0-3.578-0.35-5.2-1.051s-3.033-1.65-4.233-2.849c-1.2-1.2-2.15-2.611-2.849-4.233s-1.050-3.356-1.051-5.2c0-1.844 0.35-3.578 1.051-5.2s1.65-3.033 2.849-4.233c1.2-1.2 2.611-2.15 4.233-2.849s3.356-1.050 5.2-1.051c1.844 0 3.578 0.35 5.2 1.051s3.033 1.65 4.233 2.849c1.2 1.2 2.15 2.611 2.851 4.233s1.050 3.356 1.049 5.2c0 1.844-0.35 3.578-1.051 5.2s-1.65 3.033-2.849 4.233c-1.2 1.2-2.611 2.15-4.233 2.851s-3.356 1.050-5.2 1.049z"></path>
</symbol>
  </defs>
</svg>
