<svg width="22" height="22" viewBox="0 0 22 22" fill="none" xmlns="http://www.w3.org/2000/svg">
<g id="streamline:computer-logo-youtube-youtube-clip-social-video">
<g id="Group">
<path id="Vector" d="M18.0715 3.14307H3.92862C2.19287 3.14307 0.785767 4.55017 0.785767 6.28592V15.7145C0.785767 17.4502 2.19287 18.8574 3.92862 18.8574H18.0715C19.8072 18.8574 21.2143 17.4502 21.2143 15.7145V6.28592C21.2143 4.55017 19.8072 3.14307 18.0715 3.14307Z" stroke="black" stroke-linecap="round" stroke-linejoin="round"/>
<path id="Vector_2" d="M8.34438 14.6459V8.04593C8.3411 7.9345 8.36828 7.82429 8.42298 7.72716C8.47768 7.63003 8.55784 7.54966 8.65483 7.4947C8.75181 7.43974 8.86195 7.41227 8.97339 7.41526C9.08482 7.41824 9.19333 7.45157 9.28724 7.51164L14.9444 10.8116C15.0389 10.8671 15.1173 10.9463 15.1717 11.0414C15.2262 11.1365 15.2549 11.2442 15.2549 11.3538C15.2549 11.4634 15.2262 11.5711 15.1717 11.6662C15.1173 11.7613 15.0389 11.8405 14.9444 11.8959L9.28724 15.1959C9.19127 15.2513 9.08235 15.2804 8.97154 15.2802C8.86072 15.2799 8.75193 15.2504 8.65621 15.1945C8.56049 15.1387 8.48123 15.0585 8.42646 14.9622C8.3717 14.8659 8.34338 14.7567 8.34438 14.6459Z" stroke="black" stroke-linecap="round" stroke-linejoin="round"/>
</g>
</g>
</svg>
